PathFileType	4	(X/Y/Z)	CPRIT_Patient3_L_HipIso_Processed.TRC
DataRate	CameraRate	NumFrames	NumMarkers	Units	OrigDataRate	OrigDataStartFrame	OrigNumFrames
150.114591291062	150.114591291062	6	39	m	150.114591291062	328	       1311
Frame#	Time	R.Heel			R.Midfoot.Superior			R.Midfoot.Lateral			R.Toe			L.Heel			L.Midfoot.Superior			L.Midfoot.Lateral			L.Toe			R.Shank.Superior			R.Shank.Inferior			R.Shank.Lateral			R.Shank.Posterior			L.Shank.Superior			L.Shank.Inferior			L.Shank.Posterior			L.Shank.Lateral			R.Patella			L.Patella			R.Thigh.Superior			R.Thigh.Lateral			R.Thigh.Inferior			L.Thigh.Superior			L.Thigh.Inferior			L.Thigh.Lateral			L.Asis			R.Asis			Sacral			R.Shoulder			L.Shoulder			C7			J.Notch			Sternum			Thoracic			L.Elbow			L.Wrist			R.Elbow			R.Wrist			R.PSIS			L.PSIS			
		X1	Y1	Z1	X2	Y2	Z2	X3	Y3	Z3	X4	Y4	Z4	X5	Y5	Z5	X6	Y6	Z6	X7	Y7	Z7	X8	Y8	Z8	X9	Y9	Z9	X10	Y10	Z10	X11	Y11	Z11	X12	Y12	Z12	X13	Y13	Z13	X14	Y14	Z14	X15	Y15	Z15	X16	Y16	Z16	X17	Y17	Z17	X18	Y18	Z18	X19	Y19	Z19	X20	Y20	Z20	X21	Y21	Z21	X22	Y22	Z22	X23	Y23	Z23	X24	Y24	Z24	X25	Y25	Z25	X26	Y26	Z26	X27	Y27	Z27	X28	Y28	Z28	X29	Y29	Z29	X30	Y30	Z30	X31	Y31	Z31	X32	Y32	Z32	X33	Y33	Z33	X34	Y34	Z34	X35	Y35	Z35	X36	Y36	Z36	X37	Y37	Z37	X38	Y38	Z38	X39	Y39	Z39	

328	2.178335877863	0.872675438294	0.049016895910	0.147520863227	1.041067569064	0.099727864738	0.132914947746	0.958069256108	0.037544622951	0.190444573433	1.158336457450	0.057599923457	0.120405312116	0.154918381976	0.515510841672	0.205837672322	0.214103060806	0.426610146715	0.059905187080	0.125117033702	0.479023694053	0.118135760868	0.197754539543	0.324439165277	-0.009183247504	0.985928017633	0.364316954464	0.162153272729	0.985694428375	0.243199031790	0.159038560499	0.928823836713	0.293017897693	0.231148081533	0.850628122472	0.351326019549	0.192439724393	0.434979499493	0.578112226274	-0.009469157327	0.328798629651	0.529131976538	0.045855886045	0.394653231648	0.675899355306	0.089716460293	0.327989720560	0.619678054947	0.025668916095	0.996679164692	0.478732384955	0.133507503367	0.545757249574	0.612416066843	-0.056223002404	1.038026714755	0.769936678403	0.120096133766	0.985606905600	0.712131274791	0.215538309612	1.014508831914	0.623053007396	0.108998394101	0.791081886488	0.825576691235	-0.112976176901	0.676426053647	0.705161993672	-0.093941364627	0.661300072093	0.847673644000	-0.078806203390	0.905977372877	0.944156402904	-0.093397580402	1.045740089523	0.897683011328	0.092900612226	0.870050069725	1.037249022145	0.103127138839	1.143042183810	1.427302708188	0.158310976647	1.025396427374	1.417466401224	-0.142216190769	1.054558536560	1.470211056447	0.030298393175	1.139364110987	1.344243615058	-0.013550393863	1.137348499768	1.149970420509	-0.029745363586	0.946430009858	1.343559413254	0.074573590084	0.879928572980	1.172150456272	-0.279794979815	0.957343652782	0.988048892928	-0.435534370603	1.014987221206	1.229139787687	0.398177387444	1.091790060901	0.989518480433	0.420320704531	0.892585887700	1.034970644812	0.129073547140	0.843892782684	1.039473275565	0.068142744391	
329	2.184997455471	0.872676303103	0.049017562192	0.147519544822	1.041065937779	0.099728750262	0.132915037009	0.958069360484	0.037544323116	0.190444449901	1.158339220434	0.057597249454	0.120409284942	0.156766490261	0.511195192120	0.204634550005	0.216718122053	0.423063519460	0.058751239898	0.127357768909	0.474741650124	0.116823580746	0.201284257499	0.320962630213	-0.010666954432	0.985961605924	0.364305950801	0.162195631848	0.985713863863	0.243189044842	0.159066744022	0.928824305664	0.293007891047	0.231163299484	0.850650827382	0.351325650686	0.192434470936	0.436762611332	0.576163253443	-0.009927103023	0.330816913283	0.526362933599	0.045034999157	0.395634220877	0.673465764935	0.089417312260	0.329383773026	0.616983862349	0.025175047117	0.996745342437	0.478697266692	0.133564153010	0.547338546683	0.611205489156	-0.056344503725	1.038182460578	0.769911163506	0.120214558714	0.985651322141	0.712121371865	0.215606778604	1.014641970447	0.623011626145	0.109094012619	0.791737978430	0.825105974487	-0.113025417433	0.677519868458	0.704308914384	-0.094004605375	0.661858494733	0.846785612382	-0.078994384357	0.906242047709	0.944137678552	-0.093419665776	1.045869253819	0.897745843416	0.092968567546	0.870088734934	1.037253748049	0.103057974718	1.143289088355	1.427186993977	0.158153742158	1.025631525663	1.417416524442	-0.142350729869	1.054883775162	1.470133823308	0.030156920940	1.139579451773	1.344092118421	-0.013696731825	1.137460088710	1.149867356989	-0.029821634253	0.946602510705	1.343571230446	0.074430028432	0.879971460650	1.172228352845	-0.279924551688	0.957363005147	0.988050629543	-0.435568515670	1.015151797271	1.229191593877	0.398109739833	1.091793135026	0.989523957395	0.420312793268	0.892613664476	1.034912261196	0.129017250489	0.844017364295	1.039492970642	0.068029924526	
330	2.191659033079	0.872677120866	0.049018209759	0.147518005888	1.041064997308	0.099729604112	0.132916189426	0.958069375955	0.037544116745	0.190444216361	1.158341821973	0.057594275622	0.120413394263	0.158738496378	0.506668340314	0.203311839837	0.219521364090	0.419326896801	0.057502348628	0.129758063939	0.470239196229	0.115386540270	0.205057414677	0.317291555777	-0.012247333447	0.986002470831	0.364293840523	0.162239302087	0.985736743477	0.243178381522	0.159096315555	0.928825549294	0.292998917428	0.231176648482	0.850678264690	0.351328350217	0.192421847829	0.438692058892	0.574093508414	-0.010432741043	0.332988690661	0.523438240893	0.044139007489	0.396698063864	0.670903757709	0.089050784109	0.330901155274	0.614131459759	0.024605592822	0.996824148417	0.478661494642	0.133623560675	0.549056891849	0.609908718740	-0.056488745721	1.038362666873	0.769886497808	0.120348002991	0.985704401064	0.712111073825	0.215682078411	1.014797372798	0.622969199608	0.109196818544	0.792475480151	0.824602044893	-0.113086229781	0.678726545965	0.703397623056	-0.094079488815	0.662489990340	0.845835056393	-0.079220499577	0.906561742615	0.944137641757	-0.093435383426	1.046019239961	0.897824399227	0.093063350433	0.870133034411	1.037256221160	0.102992904988	1.143491200793	1.427098334439	0.158013350678	1.025859286452	1.417375576622	-0.142487809871	1.055174533168	1.470073802423	0.030014489267	1.139776114139	1.343962999870	-0.013828146401	1.137576405899	1.149789097405	-0.029872612897	0.946748861036	1.343586403862	0.074282657556	0.880015344029	1.172307017633	-0.280059346775	0.957386730495	0.988052603511	-0.435603516515	1.015282641541	1.229234977140	0.398041332667	1.091794087221	0.989529360275	0.420305287023	0.892641876003	1.034851902164	0.128969475767	0.844154492238	1.039510934099	0.067916479848	
331	2.198320610687	0.872677884506	0.049018836887	0.147516244214	1.041064704776	0.099730412616	0.132918342930	0.958069300563	0.037544011845	0.190443868305	1.158344246506	0.057591041610	0.120417639815	0.160837080321	0.501940891449	0.201874048620	0.222514122917	0.415409327115	0.056162412292	0.132319896818	0.465526571552	0.113829751614	0.209072125668	0.313435103408	-0.013917229740	0.986050486407	0.364280697690	0.162283804026	0.985762973055	0.243167099990	0.159126991865	0.928827425872	0.292991125183	0.231187706453	0.850710243165	0.351334205456	0.192401243556	0.440767173095	0.571906858437	-0.010984809395	0.335314216016	0.520364340518	0.043170895858	0.397846557695	0.668217719654	0.088616532908	0.332543770535	0.611125842063	0.023960485306	0.996915324880	0.478625375464	0.133685139790	0.550911081846	0.608527392960	-0.056655822060	1.038566471668	0.769862805594	0.120495503531	0.985765447783	0.712100444371	0.215763398791	1.014974630909	0.622926053514	0.109305848338	0.793293280379	0.824066599713	-0.113158871605	0.680045511199	0.702429954116	-0.094166247394	0.663194093952	0.844823062824	-0.079484544785	0.906935225374	0.944156377706	-0.093445065123	1.046189105837	0.897918279433	0.093184157943	0.870182500685	1.037256685343	0.102931758322	1.143649251638	1.427036607519	0.157890155347	1.026079592781	1.417343563200	-0.142626823816	1.055431095456	1.470031051968	0.029871657227	1.139954282621	1.343856273637	-0.013944274133	1.137697259565	1.149735570713	-0.029898214945	0.946869433799	1.343605108466	0.074132370017	0.880060243121	1.172386253389	-0.280198882166	0.957414820714	0.988054810884	-0.435639154844	1.015380380311	1.229269938913	0.397972463214	1.091793057539	0.989534634692	0.420298248146	0.892670204396	1.034789666028	0.128929953718	0.844303673483	1.039527522191	0.067802383973	
332	2.204982188295	0.872678588857	0.049019444165	0.147514259832	1.041065015278	0.099731156173	0.132921419246	0.958069135919	0.037544015784	0.190443400959	1.158346487796	0.057587577920	0.120422016216	0.163065266812	0.497022791206	0.200325677143	0.225698135966	0.411319544217	0.054735154830	0.135045602351	0.460613474371	0.112158287313	0.213326934674	0.309402245741	-0.015669629355	0.986105555397	0.364266589413	0.162328643038	0.985792489033	0.243155245691	0.159158469949	0.928829879257	0.292984651615	0.231196076539	0.850746628183	0.351343291839	0.192372134136	0.442987342209	0.569607154593	-0.011582058757	0.337793949272	0.517147464383	0.042133607161	0.399081619169	0.665411693040	0.088114360982	0.334313567109	0.607971802336	0.023239782412	0.997018619437	0.478589215752	0.133748283565	0.552899895822	0.607063240826	-0.056845832557	1.038792967150	0.769840218286	0.120655988371	0.985833832060	0.712089555844	0.215849896681	1.015173323536	0.622882514684	0.109420053990	0.794190100148	0.823501451455	-0.113243556034	0.681476084869	0.701407826526	-0.094265052451	0.663970213467	0.843750785141	-0.079786339673	0.907361002964	0.944193940708	-0.093449120739	1.046377854907	0.898027052357	0.093330019949	0.870236636722	1.037255376450	0.102874361293	1.143764128600	1.427001551640	0.157784431485	1.026292243719	1.417320492030	-0.142767109955	1.055653832204	1.470005555786	0.029729031772	1.140114142580	1.343771874307	-0.014044822625	1.137822362122	1.149706624035	-0.029898531932	0.946964662461	1.343627495946	0.073980120344	0.880106143148	1.172465848974	-0.280342658710	0.957447248216	0.988057244713	-0.435675215162	1.015445831476	1.229296535213	0.397903482840	1.091790195280	0.989539729946	0.420291741612	0.892698344974	1.034725624083	0.128898376848	0.844464356344	1.039543079194	0.067687636121	
333	2.211643765903	0.872679230553	0.049020034371	0.147512054993	1.041065883131	0.099731809690	0.132925325945	0.958068886872	0.037544135361	0.190442809409	1.158348548089	0.057583906003	0.120426512845	0.165426394061	0.491923315612	0.198671205440	0.229075479294	0.407065970655	0.053224119481	0.137937833062	0.455509066246	0.110377162446	0.217820767532	0.305201779787	-0.017497719154	0.986167605827	0.364251576300	0.162373315226	0.985825256866	0.243142851757	0.159190430323	0.928832941244	0.292979621085	0.231201395631	0.850787342345	0.351355671358	0.192334098982	0.445352003353	0.567198230658	-0.012223264562	0.340428526140	0.513793626034	0.041030031883	0.400405281035	0.662489375920	0.087544216090	0.336212518987	0.604673940005	0.022443692852	0.997133782815	0.478553317286	0.133812372919	0.555022103569	0.605518086114	-0.057058891814	1.039041207925	0.769818874986	0.120828284961	0.985908998806	0.712078490951	0.215940707733	1.015393009397	0.622838907435	0.109538314300	0.795164504044	0.822908518060	-0.113340443983	0.683017486537	0.700333239763	-0.094376009424	0.664817636808	0.842619443000	-0.080125528412	0.907837345163	0.944250371366	-0.093448032464	1.046584446078	0.898150257441	0.093499808402	0.870294922393	1.037252518177	0.102820542139	1.143836863780	1.426992772292	0.157696371750	1.026496953073	1.417306369720	-0.142907965092	1.055843189086	1.469997224198	0.029587254232	1.140255874943	1.343709659643	-0.014129577235	1.137951332063	1.149702024815	-0.029873833029	0.947035035916	1.343653690589	0.073826910993	0.880152992555	1.172545579007	-0.280490162836	0.957483964211	0.988059894787	-0.435711487261	1.015479988453	1.229314873429	0.397834783403	1.091785656581	0.989544599632	0.420285831998	0.892726009234	1.034659821876	0.128874404836	0.844635933913	1.039557932143	0.067572264115	
